<svg xmlns="http://www.w3.org/2000/svg" version="1.1" xmlns:xlink="http://www.w3.org/1999/xlink" xmlns:svgjs="http://svgjs.dev/svgjs" width="1500" height="1500" viewBox="0 0 1500 1500"><rect width="1500" height="1500" fill="#ffffff"></rect><g transform="matrix(0.6666666666666666,0,0,0.6666666666666666,249.39393939393938,658.9421888713258)"><svg viewBox="0 0 396 72" data-background-color="#ffffff" preserveAspectRatio="xMidYMid meet" height="272" width="1500" xmlns="http://www.w3.org/2000/svg" xmlns:xlink="http://www.w3.org/1999/xlink"><g id="tight-bounds" transform="matrix(1,0,0,1,0.2400000000000091,0.1553073599147865)"><svg viewBox="0 0 395.52 71.68924017013568" height="71.68924017013568" width="395.52"><g><svg viewBox="0 0 507.07433935906636 91.90881396244183" height="71.68924017013568" width="395.52"><g transform="matrix(1,0,0,1,111.55433935906636,16.102388941657235)"><svg viewBox="0 0 395.52 59.704036079127356" height="59.704036079127356" width="395.52"><g id="textblocktransform"><svg viewBox="0 0 395.52 59.704036079127356" height="59.704036079127356" width="395.52" id="textblock"><g><rect width="106.79039999999999" height="3.7522953507552863" y="53.691489963550296" fill="#261f20" data-fill-palette-color="tertiary"></rect><rect width="106.79039999999999" height="3.7522953507552863" y="53.691489963550296" x="288.7296" fill="#261f20" data-fill-palette-color="tertiary"></rect></g><g><svg viewBox="0 0 395.52 41.60847650041625" height="41.60847650041625" width="395.52"><g transform="matrix(1,0,0,1,0,0)"><svg width="395.52" viewBox="3.96 -33.45 322.55 33.940000000000005" height="41.60847650041625" data-palette-color="#000000"><path d="M27.47-16.8L27.47-16.8Q27.47-8.72 23.72-4.36 19.97 0 12.99 0L12.99 0 3.96 0 3.96-32.93 11.55-32.93Q19.58-32.93 23.52-28.92 27.47-24.9 27.47-16.8ZM22.78-16.8L22.78-16.8Q22.78-23.24 20.09-26.18 17.41-29.13 11.57-29.13L11.57-29.13 8.62-29.13 8.62-3.81 12.57-3.81Q17.75-3.81 20.26-7.06 22.78-10.3 22.78-16.8ZM57.39 0L33.96 0 33.96-32.93 56.39-32.93 56.39-29.13 38.62-29.13 38.62-18.82 54.93-18.82 54.93-15.06 38.62-15.06 38.62-3.81 57.39-3.81 57.39 0ZM87.54-9.03L87.54-9.03Q87.54-4.54 84.26-2.03 80.98 0.49 74.9 0.49L74.9 0.49Q63.74 0.49 61.93-8.25L61.93-8.25 66.45-9.16Q67.13-6.01 69.28-4.58 71.43-3.15 75.02-3.15L75.02-3.15Q78.9-3.15 80.92-4.66 82.93-6.18 82.93-8.96L82.93-8.96Q82.93-10.67 82.14-11.74 81.34-12.82 80.05-13.5 78.75-14.18 77.13-14.61 75.51-15.04 73.85-15.45L73.85-15.45Q69.92-16.48 68.24-17.29 66.57-18.09 65.57-19.13 64.57-20.17 64.06-21.51 63.54-22.85 63.54-24.66L63.54-24.66Q63.54-28.88 66.51-31.16 69.48-33.45 75.02-33.45L75.02-33.45Q80.2-33.45 82.93-31.64 85.66-29.83 86.74-25.54L86.74-25.54 82.15-24.73Q81.56-27.47 79.8-28.7 78.05-29.93 75-29.93L75-29.93Q68.09-29.93 68.09-24.73L68.09-24.73Q68.09-23.27 68.73-22.35 69.38-21.44 70.49-20.84 71.6-20.24 73.08-19.85 74.56-19.46 76.24-19.02L76.24-19.02Q79.63-18.16 81.12-17.59 82.61-17.02 83.77-16.28 84.93-15.55 85.76-14.55 86.59-13.55 87.07-12.21 87.54-10.86 87.54-9.03ZM118.13-29.13L107.32-29.13 107.32 0 102.68 0 102.68-29.13 91.86-29.13 91.86-32.93 118.13-32.93 118.13-29.13ZM124.94-29.13L124.94-32.93 145.03-32.93 145.03-29.13 137.32-29.13 137.32-3.81 145.03-3.81 145.03 0 124.94 0 124.94-3.81 132.66-3.81 132.66-29.13 124.94-29.13ZM176.04 0L170.42 0 157.73-27.59Q158.12-23.39 158.12-21.39L158.12-21.39 158.12 0 153.97 0 153.97-32.93 159.39-32.93 172.28-5.15Q171.84-8.67 171.84-11.84L171.84-11.84 171.84-32.93 176.04-32.93 176.04 0ZM209.99 0L205.26 0 201.89-9.33 188.14-9.33 184.8 0 180.01 0 192.47-32.93 197.76-32.93 209.99 0ZM196.47-25.17L195.05-29.42 194.76-28.47 193.08-23.29 189.39-12.96 200.69-12.96 196.47-25.17ZM237.56-9.03L237.56-9.03Q237.56-4.54 234.27-2.03 230.99 0.49 224.91 0.49L224.91 0.49Q213.75 0.49 211.95-8.25L211.95-8.25 216.46-9.16Q217.15-6.01 219.29-4.58 221.44-3.15 225.03-3.15L225.03-3.15Q228.91-3.15 230.93-4.66 232.94-6.18 232.94-8.96L232.94-8.96Q232.94-10.67 232.15-11.74 231.35-12.82 230.06-13.5 228.77-14.18 227.14-14.61 225.52-15.04 223.86-15.45L223.86-15.45Q219.93-16.48 218.26-17.29 216.58-18.09 215.58-19.13 214.58-20.17 214.07-21.51 213.56-22.85 213.56-24.66L213.56-24.66Q213.56-28.88 216.52-31.16 219.49-33.45 225.03-33.45L225.03-33.45Q230.21-33.45 232.94-31.64 235.68-29.83 236.75-25.54L236.75-25.54 232.16-24.73Q231.57-27.47 229.82-28.7 228.06-29.93 225.01-29.93L225.01-29.93Q218.1-29.93 218.1-24.73L218.1-24.73Q218.1-23.27 218.74-22.35 219.39-21.44 220.5-20.84 221.61-20.24 223.09-19.85 224.57-19.46 226.25-19.02L226.25-19.02Q229.65-18.16 231.13-17.59 232.62-17.02 233.78-16.28 234.94-15.55 235.77-14.55 236.6-13.55 237.08-12.21 237.56-10.86 237.56-9.03ZM244.95-29.13L244.95-32.93 265.04-32.93 265.04-29.13 257.33-29.13 257.33-3.81 265.04-3.81 265.04 0 244.95 0 244.95-3.81 252.67-3.81 252.67-29.13 244.95-29.13ZM299.98 0L294.51 0 282.62-15.58 278.64-11.45 278.64 0 273.98 0 273.98-32.93 278.64-32.93 278.64-16.5 292.6-32.93 298.1-32.93 285.79-18.97 299.98 0ZM326.51-32.93L326.51-11.96Q326.51-5.44 323.73-2.48 320.95 0.49 314.79 0.49L314.79 0.49Q308.84 0.49 306.16-2.38 303.49-5.25 303.49-11.52L303.49-11.52 303.49-32.93 308.15-32.93 308.15-12.16Q308.15-7.18 309.58-5.24 311.01-3.3 314.77-3.3L314.77-3.3Q318.7-3.3 320.29-5.3 321.87-7.3 321.87-12.48L321.87-12.48 321.87-32.93 326.51-32.93Z" opacity="1" transform="matrix(1,0,0,1,0,0)" fill="#000000" class="wordmark-text-0" data-fill-palette-color="primary" id="text-0"></path></svg></g></svg></g><g transform="matrix(1,0,0,1,106.79039999999999,51.43123919872852)"><svg viewBox="0 0 181.9392 8.272796880398836" height="8.272796880398836" width="181.9392"><g transform="matrix(1,0,0,1,8,0)"><svg width="165.9392" viewBox="0.4 -39.65 1012.83 50.5" height="8.272796880398836" data-palette-color="#000000"><path d="M0.4-34.55L21.95-34.55 21.25-29.55 14.15-29.55 14.15 0 7.8 0 7.8-29.55 0.4-29.55 0.4-34.55ZM43.7-13.85Q43.7-13.4 43.55-11.3L43.55-11.3 29.9-11.3Q30.1-7.2 31.32-5.58 32.55-3.95 34.8-3.95L34.8-3.95Q36.35-3.95 37.6-4.48 38.85-5 40.3-6.15L40.3-6.15 42.85-2.65Q39.35 0.75 34.45 0.75L34.45 0.75Q29.25 0.75 26.47-2.85 23.7-6.45 23.7-13L23.7-13Q23.7-19.55 26.35-23.35 29-27.15 33.85-27.15L33.85-27.15Q38.5-27.15 41.1-23.78 43.7-20.4 43.7-13.85L43.7-13.85ZM37.7-15.3L37.7-15.65Q37.7-19.4 36.8-21.13 35.9-22.85 33.9-22.85L33.9-22.85Q32.05-22.85 31.07-21.18 30.1-19.5 29.9-15.3L29.9-15.3 37.7-15.3ZM71.65-27.15Q74.3-27.15 75.9-25.1 77.5-23.05 77.5-19.6L77.5-19.6 77.5 0 71.45 0 71.45-18.95Q71.45-20.85 70.95-21.68 70.45-22.5 69.5-22.5L69.5-22.5Q67.55-22.5 65.75-18.8L65.75-18.8 65.75 0 59.75 0 59.75-18.95Q59.75-22.5 57.85-22.5L57.85-22.5Q55.8-22.5 54.05-18.8L54.05-18.8 54.05 0 48 0 48-26.45 53.35-26.45 53.75-23.05Q56.35-27.15 60-27.15L60-27.15Q61.84-27.15 63.2-26 64.55-24.85 65.25-22.75L65.25-22.75Q67.9-27.15 71.65-27.15L71.65-27.15ZM101.14-26.45L101.14 0 95.79 0 95.49-3.35Q94.24-1.3 92.69-0.28 91.14 0.75 89.09 0.75L89.09 0.75Q86.19 0.75 84.52-1.3 82.84-3.35 82.84-6.65L82.84-6.65 82.84-26.45 88.99-26.45 88.99-7Q88.99-3.9 91.09-3.9L91.09-3.9Q92.29-3.9 93.24-4.83 94.19-5.75 94.99-7.45L94.99-7.45 94.99-26.45 101.14-26.45ZM106.84-37.05L112.99-37.7 112.99 0 106.84 0 106.84-37.05ZM120.34-26.45L126.34-26.45 119.34-14.75 126.94 0 120.34 0 113.24-14.45 120.34-26.45ZM146.39-6.4Q146.39-5.1 146.74-4.48 147.09-3.85 147.89-3.45L147.89-3.45 146.64 0.65Q144.59 0.4 143.36-0.45 142.14-1.3 141.54-3.05L141.54-3.05Q139.24 0.75 135.09 0.75L135.09 0.75Q131.79 0.75 129.84-1.48 127.89-3.7 127.89-7.4L127.89-7.4Q127.89-11.7 130.56-13.95 133.24-16.2 138.34-16.2L138.34-16.2 140.39-16.2 140.39-18.05Q140.39-20.55 139.51-21.58 138.64-22.6 136.69-22.6L136.69-22.6Q134.34-22.6 130.84-21.3L130.84-21.3 129.44-25.3Q131.44-26.2 133.59-26.68 135.74-27.15 137.69-27.15L137.69-27.15Q146.39-27.15 146.39-18.35L146.39-18.35 146.39-6.4ZM136.74-3.7Q139.14-3.7 140.39-7L140.39-7 140.39-12.55 138.94-12.55Q136.39-12.55 135.21-11.4 134.04-10.25 134.04-7.85L134.04-7.85Q134.04-5.8 134.74-4.75 135.44-3.7 136.74-3.7L136.74-3.7ZM164.54-27.15Q167.39-27.15 169.04-25.1 170.69-23.05 170.69-19.6L170.69-19.6 170.69 0 164.54 0 164.54-18.9Q164.54-20.8 164.01-21.63 163.49-22.45 162.49-22.45L162.49-22.45Q160.39-22.45 158.34-18.5L158.34-18.5 158.34 0 152.19 0 152.19-26.45 157.54-26.45 157.99-23Q159.34-25.1 160.86-26.13 162.39-27.15 164.54-27.15L164.54-27.15ZM194.13-34.55Q200.38-34.55 203.66-31.78 206.93-29 206.93-23.6L206.93-23.6Q206.93-17.85 203.71-15 200.48-12.15 194.58-12.15L194.58-12.15 192.58-12.15 192.58 0 186.23 0 186.23-34.55 194.13-34.55ZM194.23-16.9Q197.48-16.9 198.93-18.4 200.38-19.9 200.38-23.55L200.38-23.55Q200.38-26.85 198.93-28.35 197.48-29.85 194.28-29.85L194.28-29.85 192.58-29.85 192.58-16.9 194.23-16.9ZM229.38-13.85Q229.38-13.4 229.23-11.3L229.23-11.3 215.58-11.3Q215.78-7.2 217-5.58 218.23-3.95 220.48-3.95L220.48-3.95Q222.03-3.95 223.28-4.48 224.53-5 225.98-6.15L225.98-6.15 228.53-2.65Q225.03 0.75 220.13 0.75L220.13 0.75Q214.93 0.75 212.15-2.85 209.38-6.45 209.38-13L209.38-13Q209.38-19.55 212.03-23.35 214.68-27.15 219.53-27.15L219.53-27.15Q224.18-27.15 226.78-23.78 229.38-20.4 229.38-13.85L229.38-13.85ZM223.38-15.3L223.38-15.65Q223.38-19.4 222.48-21.13 221.58-22.85 219.58-22.85L219.58-22.85Q217.73-22.85 216.75-21.18 215.78-19.5 215.58-15.3L215.58-15.3 223.38-15.3ZM244.83-5L246.98-1.2Q244.53 0.75 241.23 0.75L241.23 0.75Q237.78 0.75 235.98-1.23 234.18-3.2 234.18-6.6L234.18-6.6 234.18-22 231.08-22 231.08-26.45 234.18-26.45 234.18-32.3 240.33-33.05 240.33-26.45 245.33-26.45 244.73-22 240.33-22 240.33-6.6Q240.33-4.2 242.38-4.2L242.38-4.2Q243.03-4.2 243.53-4.38 244.03-4.55 244.83-5L244.83-5ZM267.67-26.45L267.67 0 262.32 0 262.02-3.35Q260.77-1.3 259.22-0.28 257.67 0.75 255.62 0.75L255.62 0.75Q252.72 0.75 251.05-1.3 249.37-3.35 249.37-6.65L249.37-6.65 249.37-26.45 255.52-26.45 255.52-7Q255.52-3.9 257.62-3.9L257.62-3.9Q258.82-3.9 259.77-4.83 260.72-5.75 261.52-7.45L261.52-7.45 261.52-26.45 267.67-26.45ZM290.27-6.4Q290.27-5.1 290.62-4.48 290.97-3.85 291.77-3.45L291.77-3.45 290.52 0.65Q288.47 0.4 287.25-0.45 286.02-1.3 285.42-3.05L285.42-3.05Q283.12 0.75 278.97 0.75L278.97 0.75Q275.67 0.75 273.72-1.48 271.77-3.7 271.77-7.4L271.77-7.4Q271.77-11.7 274.45-13.95 277.12-16.2 282.22-16.2L282.22-16.2 284.27-16.2 284.27-18.05Q284.27-20.55 283.4-21.58 282.52-22.6 280.57-22.6L280.57-22.6Q278.22-22.6 274.72-21.3L274.72-21.3 273.32-25.3Q275.32-26.2 277.47-26.68 279.62-27.15 281.57-27.15L281.57-27.15Q290.27-27.15 290.27-18.35L290.27-18.35 290.27-6.4ZM280.62-3.7Q283.02-3.7 284.27-7L284.27-7 284.27-12.55 282.82-12.55Q280.27-12.55 279.1-11.4 277.92-10.25 277.92-7.85L277.92-7.85Q277.92-5.8 278.62-4.75 279.32-3.7 280.62-3.7L280.62-3.7ZM301.67 0.75Q298.97 0.75 297.39-0.93 295.82-2.6 295.82-5.4L295.82-5.4 295.82-37.05 301.97-37.7 301.97-5.65Q301.97-5 302.27-4.6 302.57-4.2 303.17-4.2L303.17-4.2Q303.52-4.2 303.84-4.3 304.17-4.4 304.27-4.4L304.27-4.4 305.47-0.2Q303.77 0.75 301.67 0.75L301.67 0.75ZM325.42-6.4Q325.42-5.1 325.77-4.48 326.12-3.85 326.92-3.45L326.92-3.45 325.67 0.65Q323.62 0.4 322.39-0.45 321.17-1.3 320.57-3.05L320.57-3.05Q318.27 0.75 314.12 0.75L314.12 0.75Q310.82 0.75 308.87-1.48 306.92-3.7 306.92-7.4L306.92-7.4Q306.92-11.7 309.59-13.95 312.27-16.2 317.37-16.2L317.37-16.2 319.42-16.2 319.42-18.05Q319.42-20.55 318.54-21.58 317.67-22.6 315.72-22.6L315.72-22.6Q313.37-22.6 309.87-21.3L309.87-21.3 308.47-25.3Q310.47-26.2 312.62-26.68 314.77-27.15 316.72-27.15L316.72-27.15Q325.42-27.15 325.42-18.35L325.42-18.35 325.42-6.4ZM315.77-3.7Q318.17-3.7 319.42-7L319.42-7 319.42-12.55 317.97-12.55Q315.42-12.55 314.24-11.4 313.07-10.25 313.07-7.85L313.07-7.85Q313.07-5.8 313.77-4.75 314.47-3.7 315.77-3.7L315.77-3.7ZM343.56-27.15Q346.41-27.15 348.06-25.1 349.71-23.05 349.71-19.6L349.71-19.6 349.71 0 343.56 0 343.56-18.9Q343.56-20.8 343.04-21.63 342.51-22.45 341.51-22.45L341.51-22.45Q339.41-22.45 337.36-18.5L337.36-18.5 337.36 0 331.21 0 331.21-26.45 336.56-26.45 337.01-23Q338.36-25.1 339.89-26.13 341.41-27.15 343.56-27.15L343.56-27.15ZM373.21-29.85L374.76-25.1Q373.71-24.6 372.24-24.4 370.76-24.2 368.56-24.2L368.56-24.2Q370.66-23.2 371.69-21.53 372.71-19.85 372.71-17.4L372.71-17.4Q372.71-13.4 370.26-10.95 367.81-8.5 363.61-8.5L363.61-8.5Q362.36-8.5 361.06-8.9L361.06-8.9Q360.16-8.15 360.16-6.85L360.16-6.85Q360.16-5.85 360.71-5.35 361.26-4.85 362.76-4.85L362.76-4.85 365.56-4.85Q369.56-4.85 371.91-2.78 374.26-0.7 374.26 2.5L374.26 2.5Q374.26 6.3 371.34 8.58 368.41 10.85 363.01 10.85L363.01 10.85Q357.31 10.85 355.04 8.75 352.76 6.65 352.76 2.6L352.76 2.6 358.21 2.6Q358.21 4.75 359.21 5.65 360.21 6.55 363.06 6.55L363.06 6.55Q365.81 6.55 366.96 5.6 368.11 4.65 368.11 2.9L368.11 2.9Q368.11 1.2 367.16 0.4 366.21-0.4 364.21-0.4L364.21-0.4 362.31-0.4Q358.51-0.4 356.76-1.75 355.01-3.1 355.01-5.45L355.01-5.45Q355.01-6.8 355.74-8.03 356.46-9.25 357.71-10.2L357.71-10.2Q355.66-11.5 354.71-13.3 353.76-15.1 353.76-17.7L353.76-17.7Q353.76-22.05 356.36-24.58 358.96-27.1 363.36-27.1L363.36-27.1Q366.61-27.1 368.74-27.8 370.86-28.5 373.21-29.85L373.21-29.85ZM363.36-23Q361.61-23 360.71-21.75 359.81-20.5 359.81-17.8L359.81-17.8Q359.81-15.25 360.71-13.88 361.61-12.5 363.31-12.5L363.31-12.5Q365.06-12.5 365.91-13.73 366.76-14.95 366.76-17.85L366.76-17.85Q366.76-20.55 365.94-21.78 365.11-23 363.36-23L363.36-23ZM394.41-6.4Q394.41-5.1 394.76-4.48 395.11-3.85 395.91-3.45L395.91-3.45 394.66 0.65Q392.61 0.4 391.38-0.45 390.16-1.3 389.56-3.05L389.56-3.05Q387.26 0.75 383.11 0.75L383.11 0.75Q379.81 0.75 377.86-1.48 375.91-3.7 375.91-7.4L375.91-7.4Q375.91-11.7 378.58-13.95 381.26-16.2 386.36-16.2L386.36-16.2 388.41-16.2 388.41-18.05Q388.41-20.55 387.53-21.58 386.66-22.6 384.71-22.6L384.71-22.6Q382.36-22.6 378.86-21.3L378.86-21.3 377.46-25.3Q379.46-26.2 381.61-26.68 383.76-27.15 385.71-27.15L385.71-27.15Q394.41-27.15 394.41-18.35L394.41-18.35 394.41-6.4ZM384.76-3.7Q387.16-3.7 388.41-7L388.41-7 388.41-12.55 386.96-12.55Q384.41-12.55 383.23-11.4 382.06-10.25 382.06-7.85L382.06-7.85Q382.06-5.8 382.76-4.75 383.46-3.7 384.76-3.7L384.76-3.7ZM412.56-27.15Q415.41-27.15 417.06-25.1 418.71-23.05 418.71-19.6L418.71-19.6 418.71 0 412.56 0 412.56-18.9Q412.56-20.8 412.03-21.63 411.51-22.45 410.51-22.45L410.51-22.45Q408.41-22.45 406.36-18.5L406.36-18.5 406.36 0 400.21 0 400.21-26.45 405.56-26.45 406.01-23Q407.36-25.1 408.88-26.13 410.41-27.15 412.56-27.15L412.56-27.15ZM447.9-27.15Q450.55-27.15 452.15-25.1 453.75-23.05 453.75-19.6L453.75-19.6 453.75 0 447.7 0 447.7-18.95Q447.7-20.85 447.2-21.68 446.7-22.5 445.75-22.5L445.75-22.5Q443.8-22.5 442-18.8L442-18.8 442 0 436 0 436-18.95Q436-22.5 434.1-22.5L434.1-22.5Q432.05-22.5 430.3-18.8L430.3-18.8 430.3 0 424.25 0 424.25-26.45 429.6-26.45 430-23.05Q432.6-27.15 436.25-27.15L436.25-27.15Q438.1-27.15 439.45-26 440.8-24.85 441.5-22.75L441.5-22.75Q444.15-27.15 447.9-27.15L447.9-27.15ZM477.4-26.45L477.4 0 472.05 0 471.75-3.35Q470.5-1.3 468.95-0.28 467.4 0.75 465.35 0.75L465.35 0.75Q462.45 0.75 460.78-1.3 459.1-3.35 459.1-6.65L459.1-6.65 459.1-26.45 465.25-26.45 465.25-7Q465.25-3.9 467.35-3.9L467.35-3.9Q468.55-3.9 469.5-4.83 470.45-5.75 471.25-7.45L471.25-7.45 471.25-26.45 477.4-26.45ZM485.5-7.05Q487.1-7.05 488.12-5.98 489.15-4.9 489.15-3.25L489.15-3.25Q489.15-2.55 488.92-1.78 488.7-1 488.35-0.08 488 0.85 487.9 1.2L487.9 1.2 485.25 8.55 481.8 8.55 483.6 0.1Q481.8-1.2 481.8-3.2L481.8-3.2Q481.8-4.85 482.85-5.95 483.9-7.05 485.5-7.05L485.5-7.05ZM510.74-34.55L510.74-5Q510.74 0.4 508.39 3.18 506.04 5.95 501.79 7.6L501.79 7.6 500.09 3.1Q501.94 2.2 502.84 1.18 503.74 0.15 504.04-1.3 504.34-2.75 504.34-5.25L504.34-5.25 504.34-34.55 510.74-34.55ZM535.29-13.85Q535.29-13.4 535.14-11.3L535.14-11.3 521.49-11.3Q521.69-7.2 522.92-5.58 524.14-3.95 526.39-3.95L526.39-3.95Q527.94-3.95 529.19-4.48 530.44-5 531.89-6.15L531.89-6.15 534.44-2.65Q530.94 0.75 526.04 0.75L526.04 0.75Q520.84 0.75 518.07-2.85 515.29-6.45 515.29-13L515.29-13Q515.29-19.55 517.94-23.35 520.59-27.15 525.44-27.15L525.44-27.15Q530.09-27.15 532.69-23.78 535.29-20.4 535.29-13.85L535.29-13.85ZM529.29-15.3L529.29-15.65Q529.29-19.4 528.39-21.13 527.49-22.85 525.49-22.85L525.49-22.85Q523.64-22.85 522.67-21.18 521.69-19.5 521.49-15.3L521.49-15.3 529.29-15.3ZM545.19 0.75Q542.49 0.75 540.91-0.93 539.34-2.6 539.34-5.4L539.34-5.4 539.34-37.05 545.49-37.7 545.49-5.65Q545.49-5 545.79-4.6 546.09-4.2 546.69-4.2L546.69-4.2Q547.04-4.2 547.36-4.3 547.69-4.4 547.79-4.4L547.79-4.4 548.99-0.2Q547.29 0.75 545.19 0.75L545.19 0.75ZM568.93-6.4Q568.93-5.1 569.28-4.48 569.63-3.85 570.43-3.45L570.43-3.45 569.18 0.65Q567.13 0.4 565.91-0.45 564.68-1.3 564.08-3.05L564.08-3.05Q561.78 0.75 557.63 0.75L557.63 0.75Q554.33 0.75 552.38-1.48 550.43-3.7 550.43-7.4L550.43-7.4Q550.43-11.7 553.11-13.95 555.78-16.2 560.88-16.2L560.88-16.2 562.93-16.2 562.93-18.05Q562.93-20.55 562.06-21.58 561.18-22.6 559.23-22.6L559.23-22.6Q556.88-22.6 553.38-21.3L553.38-21.3 551.98-25.3Q553.98-26.2 556.13-26.68 558.28-27.15 560.23-27.15L560.23-27.15Q568.93-27.15 568.93-18.35L568.93-18.35 568.93-6.4ZM559.28-3.7Q561.68-3.7 562.93-7L562.93-7 562.93-12.55 561.48-12.55Q558.93-12.55 557.76-11.4 556.58-10.25 556.58-7.85L556.58-7.85Q556.58-5.8 557.28-4.75 557.98-3.7 559.28-3.7L559.28-3.7ZM580.88-26.45L580.88-1.25Q580.88 2.1 579.86 4.35 578.83 6.6 577.01 8.05 575.18 9.5 572.38 10.8L572.38 10.8 570.28 6.4Q571.88 5.45 572.81 4.6 573.73 3.75 574.23 2.38 574.73 1 574.73-1.2L574.73-1.2 574.73-26.45 580.88-26.45ZM577.78-39.65Q579.43-39.65 580.46-38.6 581.48-37.55 581.48-35.9L581.48-35.9Q581.48-34.3 580.46-33.25 579.43-32.2 577.78-32.2L577.78-32.2Q576.13-32.2 575.11-33.25 574.08-34.3 574.08-35.9L574.08-35.9Q574.08-37.55 575.11-38.6 576.13-39.65 577.78-39.65L577.78-39.65ZM603.48-6.4Q603.48-5.1 603.83-4.48 604.18-3.85 604.98-3.45L604.98-3.45 603.73 0.65Q601.68 0.4 600.45-0.45 599.23-1.3 598.63-3.05L598.63-3.05Q596.33 0.75 592.18 0.75L592.18 0.75Q588.88 0.75 586.93-1.48 584.98-3.7 584.98-7.4L584.98-7.4Q584.98-11.7 587.65-13.95 590.33-16.2 595.43-16.2L595.43-16.2 597.48-16.2 597.48-18.05Q597.48-20.55 596.6-21.58 595.73-22.6 593.78-22.6L593.78-22.6Q591.43-22.6 587.93-21.3L587.93-21.3 586.53-25.3Q588.53-26.2 590.68-26.68 592.83-27.15 594.78-27.15L594.78-27.15Q603.48-27.15 603.48-18.35L603.48-18.35 603.48-6.4ZM593.83-3.7Q596.23-3.7 597.48-7L597.48-7 597.48-12.55 596.03-12.55Q593.48-12.55 592.3-11.4 591.13-10.25 591.13-7.85L591.13-7.85Q591.13-5.8 591.83-4.75 592.53-3.7 593.83-3.7L593.83-3.7ZM621.63-27.15Q624.48-27.15 626.13-25.1 627.78-23.05 627.78-19.6L627.78-19.6 627.78 0 621.63 0 621.63-18.9Q621.63-20.8 621.1-21.63 620.58-22.45 619.58-22.45L619.58-22.45Q617.48-22.45 615.43-18.5L615.43-18.5 615.43 0 609.28 0 609.28-37 615.43-37.65 615.43-23.3Q616.68-25.25 618.15-26.2 619.63-27.15 621.63-27.15L621.63-27.15ZM633.32-26.45L639.47-26.45 639.47 0 633.32 0 633.32-26.45ZM636.37-39.65Q638.02-39.65 639.05-38.6 640.07-37.55 640.07-35.9L640.07-35.9Q640.07-34.3 639.05-33.25 638.02-32.2 636.37-32.2L636.37-32.2Q634.72-32.2 633.7-33.25 632.67-34.3 632.67-35.9L632.67-35.9Q632.67-37.55 633.7-38.6 634.72-39.65 636.37-39.65L636.37-39.65ZM662.87-34.55Q667.22-34.55 670.39-33.23 673.57-31.9 675.54-28.13 677.52-24.35 677.52-17.45L677.52-17.45Q677.52-7.7 673.64-3.85 669.77 0 663.52 0L663.52 0 655.17 0 655.17-34.55 662.87-34.55ZM663.82-29.8L661.52-29.8 661.52-4.75 663.87-4.75Q666.12-4.75 667.64-5.8 669.17-6.85 670.04-9.65 670.92-12.45 670.92-17.45L670.92-17.45Q670.92-22.55 669.99-25.25 669.07-27.95 667.54-28.88 666.02-29.8 663.82-29.8L663.82-29.8ZM700.27-26.45L700.27 0 694.92 0 694.62-3.35Q693.37-1.3 691.82-0.28 690.27 0.75 688.22 0.75L688.22 0.75Q685.32 0.75 683.64-1.3 681.97-3.35 681.97-6.65L681.97-6.65 681.97-26.45 688.12-26.45 688.12-7Q688.12-3.9 690.22-3.9L690.22-3.9Q691.42-3.9 692.37-4.83 693.32-5.75 694.12-7.45L694.12-7.45 694.12-26.45 700.27-26.45ZM718.31-27.15Q721.16-27.15 722.81-25.1 724.46-23.05 724.46-19.6L724.46-19.6 724.46 0 718.31 0 718.31-18.9Q718.31-20.8 717.79-21.63 717.26-22.45 716.26-22.45L716.26-22.45Q714.16-22.45 712.11-18.5L712.11-18.5 712.11 0 705.96 0 705.96-26.45 711.31-26.45 711.76-23Q713.11-25.1 714.64-26.13 716.16-27.15 718.31-27.15L718.31-27.15ZM730.01-26.45L736.16-26.45 736.16 0 730.01 0 730.01-26.45ZM733.06-39.65Q734.71-39.65 735.74-38.6 736.76-37.55 736.76-35.9L736.76-35.9Q736.76-34.3 735.74-33.25 734.71-32.2 733.06-32.2L733.06-32.2Q731.41-32.2 730.39-33.25 729.36-34.3 729.36-35.9L729.36-35.9Q729.36-37.55 730.39-38.6 731.41-39.65 733.06-39.65L733.06-39.65ZM758.76-6.4Q758.76-5.1 759.11-4.48 759.46-3.85 760.26-3.45L760.26-3.45 759.01 0.65Q756.96 0.4 755.73-0.45 754.51-1.3 753.91-3.05L753.91-3.05Q751.61 0.75 747.46 0.75L747.46 0.75Q744.16 0.75 742.21-1.48 740.26-3.7 740.26-7.4L740.26-7.4Q740.26-11.7 742.93-13.95 745.61-16.2 750.71-16.2L750.71-16.2 752.76-16.2 752.76-18.05Q752.76-20.55 751.88-21.58 751.01-22.6 749.06-22.6L749.06-22.6Q746.71-22.6 743.21-21.3L743.21-21.3 741.81-25.3Q743.81-26.2 745.96-26.68 748.11-27.15 750.06-27.15L750.06-27.15Q758.76-27.15 758.76-18.35L758.76-18.35 758.76-6.4ZM749.11-3.7Q751.51-3.7 752.76-7L752.76-7 752.76-12.55 751.31-12.55Q748.76-12.55 747.58-11.4 746.41-10.25 746.41-7.85L746.41-7.85Q746.41-5.8 747.11-4.75 747.81-3.7 749.11-3.7L749.11-3.7ZM771.95-34.55L793.5-34.55 792.8-29.55 785.7-29.55 785.7 0 779.35 0 779.35-29.55 771.95-29.55 771.95-34.55ZM813.3-6.4Q813.3-5.1 813.65-4.48 814-3.85 814.8-3.45L814.8-3.45 813.55 0.65Q811.5 0.4 810.28-0.45 809.05-1.3 808.45-3.05L808.45-3.05Q806.15 0.75 802 0.75L802 0.75Q798.7 0.75 796.75-1.48 794.8-3.7 794.8-7.4L794.8-7.4Q794.8-11.7 797.48-13.95 800.15-16.2 805.25-16.2L805.25-16.2 807.3-16.2 807.3-18.05Q807.3-20.55 806.43-21.58 805.55-22.6 803.6-22.6L803.6-22.6Q801.25-22.6 797.75-21.3L797.75-21.3 796.35-25.3Q798.35-26.2 800.5-26.68 802.65-27.15 804.6-27.15L804.6-27.15Q813.3-27.15 813.3-18.35L813.3-18.35 813.3-6.4ZM803.65-3.7Q806.05-3.7 807.3-7L807.3-7 807.3-12.55 805.85-12.55Q803.3-12.55 802.13-11.4 800.95-10.25 800.95-7.85L800.95-7.85Q800.95-5.8 801.65-4.75 802.35-3.7 803.65-3.7L803.65-3.7ZM831.45-27.15Q834.3-27.15 835.95-25.1 837.6-23.05 837.6-19.6L837.6-19.6 837.6 0 831.45 0 831.45-18.9Q831.45-20.8 830.92-21.63 830.4-22.45 829.4-22.45L829.4-22.45Q827.3-22.45 825.25-18.5L825.25-18.5 825.25 0 819.1 0 819.1-26.45 824.45-26.45 824.9-23Q826.25-25.1 827.77-26.13 829.3-27.15 831.45-27.15L831.45-27.15ZM855.35-27.15Q859.25-27.15 861.25-23.58 863.25-20 863.25-13.3L863.25-13.3Q863.25-6.8 860.97-3.03 858.7 0.75 854.65 0.75L854.65 0.75Q851.45 0.75 849.3-2.1L849.3-2.1 849.3 10.15 843.15 10.85 843.15-26.45 848.6-26.45 848.85-23.25Q850.15-25.25 851.75-26.2 853.35-27.15 855.35-27.15L855.35-27.15ZM853-3.95Q854.9-3.95 855.9-6.13 856.9-8.3 856.9-13.25L856.9-13.25Q856.9-18.45 856.05-20.5 855.2-22.55 853.4-22.55L853.4-22.55Q851.1-22.55 849.3-19.25L849.3-19.25 849.3-6.45Q850.9-3.95 853-3.95L853-3.95ZM884.74-6.4Q884.74-5.1 885.09-4.48 885.44-3.85 886.24-3.45L886.24-3.45 884.99 0.65Q882.94 0.4 881.72-0.45 880.49-1.3 879.89-3.05L879.89-3.05Q877.59 0.75 873.44 0.75L873.44 0.75Q870.14 0.75 868.19-1.48 866.24-3.7 866.24-7.4L866.24-7.4Q866.24-11.7 868.92-13.95 871.59-16.2 876.69-16.2L876.69-16.2 878.74-16.2 878.74-18.05Q878.74-20.55 877.87-21.58 876.99-22.6 875.04-22.6L875.04-22.6Q872.69-22.6 869.19-21.3L869.19-21.3 867.79-25.3Q869.79-26.2 871.94-26.68 874.09-27.15 876.04-27.15L876.04-27.15Q884.74-27.15 884.74-18.35L884.74-18.35 884.74-6.4ZM875.09-3.7Q877.49-3.7 878.74-7L878.74-7 878.74-12.55 877.29-12.55Q874.74-12.55 873.57-11.4 872.39-10.25 872.39-7.85L872.39-7.85Q872.39-5.8 873.09-4.75 873.79-3.7 875.09-3.7L875.09-3.7ZM914.59-18.3Q917.94-17.55 919.86-15.63 921.79-13.7 921.79-9.9L921.79-9.9Q921.79-4.9 918.41-2.45 915.04 0 909.24 0L909.24 0 900.54 0 900.54-34.55 908.09-34.55Q914.04-34.55 917.29-32.3 920.54-30.05 920.54-25.75L920.54-25.75Q920.54-22.85 918.91-20.95 917.29-19.05 914.59-18.3L914.59-18.3ZM908.74-29.85L906.89-29.85 906.89-20.3 909.04-20.3Q914.09-20.3 914.09-25.2L914.09-25.2Q914.09-27.65 912.81-28.75 911.54-29.85 908.74-29.85L908.74-29.85ZM909.29-4.8Q912.19-4.8 913.69-6.03 915.19-7.25 915.19-10.15L915.19-10.15Q915.19-13.05 913.79-14.43 912.39-15.8 909.44-15.8L909.44-15.8 906.89-15.8 906.89-4.8 909.29-4.8ZM942.69-6.4Q942.69-5.1 943.04-4.48 943.39-3.85 944.19-3.45L944.19-3.45 942.94 0.65Q940.89 0.4 939.66-0.45 938.44-1.3 937.84-3.05L937.84-3.05Q935.54 0.75 931.39 0.75L931.39 0.75Q928.09 0.75 926.14-1.48 924.19-3.7 924.19-7.4L924.19-7.4Q924.19-11.7 926.86-13.95 929.54-16.2 934.64-16.2L934.64-16.2 936.69-16.2 936.69-18.05Q936.69-20.55 935.81-21.58 934.94-22.6 932.99-22.6L932.99-22.6Q930.64-22.6 927.14-21.3L927.14-21.3 925.74-25.3Q927.74-26.2 929.89-26.68 932.04-27.15 933.99-27.15L933.99-27.15Q942.69-27.15 942.69-18.35L942.69-18.35 942.69-6.4ZM933.04-3.7Q935.44-3.7 936.69-7L936.69-7 936.69-12.55 935.24-12.55Q932.69-12.55 931.51-11.4 930.34-10.25 930.34-7.85L930.34-7.85Q930.34-5.8 931.04-4.75 931.74-3.7 933.04-3.7L933.04-3.7ZM959.63-5L961.78-1.2Q959.33 0.75 956.03 0.75L956.03 0.75Q952.58 0.75 950.78-1.23 948.98-3.2 948.98-6.6L948.98-6.6 948.98-22 945.88-22 945.88-26.45 948.98-26.45 948.98-32.3 955.13-33.05 955.13-26.45 960.13-26.45 959.53-22 955.13-22 955.13-6.6Q955.13-4.2 957.18-4.2L957.18-4.2Q957.83-4.2 958.33-4.38 958.83-4.55 959.63-5L959.63-5ZM981.23-6.4Q981.23-5.1 981.58-4.48 981.93-3.85 982.73-3.45L982.73-3.45 981.48 0.65Q979.43 0.4 978.21-0.45 976.98-1.3 976.38-3.05L976.38-3.05Q974.08 0.75 969.93 0.75L969.93 0.75Q966.63 0.75 964.68-1.48 962.73-3.7 962.73-7.4L962.73-7.4Q962.73-11.7 965.41-13.95 968.08-16.2 973.18-16.2L973.18-16.2 975.23-16.2 975.23-18.05Q975.23-20.55 974.36-21.58 973.48-22.6 971.53-22.6L971.53-22.6Q969.18-22.6 965.68-21.3L965.68-21.3 964.28-25.3Q966.28-26.2 968.43-26.68 970.58-27.15 972.53-27.15L972.53-27.15Q981.23-27.15 981.23-18.35L981.23-18.35 981.23-6.4ZM971.58-3.7Q973.98-3.7 975.23-7L975.23-7 975.23-12.55 973.78-12.55Q971.23-12.55 970.06-11.4 968.88-10.25 968.88-7.85L968.88-7.85Q968.88-5.8 969.58-4.75 970.28-3.7 971.58-3.7L971.58-3.7ZM994.38-27.15Q999.08-27.15 1002.33-24.05L1002.33-24.05 999.98-20.7Q998.58-21.7 997.33-22.2 996.08-22.7 994.78-22.7L994.78-22.7Q993.33-22.7 992.5-21.93 991.68-21.15 991.68-19.8L991.68-19.8Q991.68-18.45 992.6-17.63 993.53-16.8 996.33-15.7L996.33-15.7Q999.78-14.35 1001.43-12.5 1003.08-10.65 1003.08-7.55L1003.08-7.55Q1003.08-3.7 1000.38-1.48 997.68 0.75 993.53 0.75L993.53 0.75Q990.83 0.75 988.55-0.23 986.28-1.2 984.58-2.95L984.58-2.95 987.58-6.25Q990.38-3.8 993.28-3.8L993.28-3.8Q994.93-3.8 995.88-4.67 996.83-5.55 996.83-7.1L996.83-7.1Q996.83-8.25 996.43-8.97 996.03-9.7 995.03-10.33 994.03-10.95 992.03-11.7L992.03-11.7Q988.58-13.05 987.1-14.85 985.63-16.65 985.63-19.45L985.63-19.45Q985.63-22.8 988-24.98 990.38-27.15 994.38-27.15L994.38-27.15ZM1009.43-7.05Q1011.13-7.05 1012.18-5.9 1013.23-4.75 1013.23-3.15L1013.23-3.15Q1013.23-1.55 1012.18-0.4 1011.13 0.75 1009.43 0.75L1009.43 0.75Q1007.78 0.75 1006.7-0.4 1005.63-1.55 1005.63-3.15L1005.63-3.15Q1005.63-4.75 1006.7-5.9 1007.78-7.05 1009.43-7.05L1009.43-7.05Z" opacity="1" transform="matrix(1,0,0,1,0,0)" fill="#000000" class="slogan-text-1" data-fill-palette-color="secondary" id="text-1"></path></svg></g></svg></g></svg></g></svg></g><g><svg viewBox="0 0 91.90881396244183 91.90881396244183" height="91.90881396244183" width="91.90881396244183"><g><svg></svg></g><g id="icon-0"><svg viewBox="0 0 91.90881396244183 91.90881396244183" height="91.90881396244183" width="91.90881396244183"><g><path d="M0 45.954c0-25.38 20.574-45.954 45.954-45.954 25.38 0 45.954 20.574 45.955 45.954 0 25.38-20.574 45.954-45.955 45.955-25.38 0-45.954-20.574-45.954-45.955zM45.954 88.157c23.308 0 42.202-18.895 42.203-42.203 0-23.308-18.895-42.202-42.203-42.202-23.308 0-42.202 18.895-42.202 42.202 0 23.308 18.895 42.202 42.202 42.203z" data-fill-palette-color="tertiary" fill="#261f20" stroke="transparent"></path></g><g transform="matrix(1,0,0,1,31.89989486586841,21.73027751312314)"><svg viewBox="0 0 28.109024230705 48.44825893619554" height="48.44825893619554" width="28.109024230705"><g><svg xmlns="http://www.w3.org/2000/svg" xmlns:xlink="http://www.w3.org/1999/xlink" version="1.1" x="0" y="0" viewBox="21.679106830508616 1 56.85827385947762 98" enable-background="new 0 0 100 100" xml:space="preserve" height="48.44825893619554" width="28.109024230705" class="icon-dxe-0" data-fill-palette-color="accent" id="dxe-0"><g fill="#261f20" data-fill-palette-color="accent"><path fill-rule="evenodd" clip-rule="evenodd" d="M30.545 28.822C29.38 36.039 30.875 43.672 37.045 47.863 30.758 19.81 45.756 8.664 59.646 1 43.466 24.046 76.542 24.644 78.423 51.13 80.028 73.71 64.507 91.317 46.639 99 46.845 76.175 24.089 73.067 21.801 54.397 20.905 47.094 25.062 33.766 30.545 28.822" fill="#261f20" data-fill-palette-color="accent"></path></g></svg></g></svg></g></svg></g></svg></g></svg></g><defs></defs></svg><rect width="395.52" height="71.68924017013568" fill="none" stroke="none" visibility="hidden"></rect></g></svg></g></svg>